<?xml version="1.0" encoding="UTF-8" standalone="no"?>
<!-- Created with Inkscape (http://www.inkscape.org/) -->

<svg
   xmlns:dc="http://purl.org/dc/elements/1.1/"
   xmlns:cc="http://creativecommons.org/ns#"
   xmlns:rdf="http://www.w3.org/1999/02/22-rdf-syntax-ns#"
   xmlns:svg="http://www.w3.org/2000/svg"
   xmlns="http://www.w3.org/2000/svg"
   xmlns:sodipodi="http://sodipodi.sourceforge.net/DTD/sodipodi-0.dtd"
   xmlns:inkscape="http://www.inkscape.org/namespaces/inkscape"
   width="210mm"
   height="297mm"
   viewBox="0 0 744.09448819 1052.3622047"
   id="svg4718"
   version="1.1"
   inkscape:version="0.91 r13725"
   sodipodi:docname="social icons.svg">
  <defs
     id="defs4720" />
  <sodipodi:namedview
     id="base"
     pagecolor="#ffffff"
     bordercolor="#666666"
     borderopacity="1.0"
     inkscape:pageopacity="0.0"
     inkscape:pageshadow="2"
     inkscape:zoom="0.80675645"
     inkscape:cx="372.04724"
     inkscape:cy="526.1811"
     inkscape:document-units="px"
     inkscape:current-layer="layer1"
     showgrid="false"
     inkscape:window-width="1827"
     inkscape:window-height="1046"
     inkscape:window-x="-11"
     inkscape:window-y="-11"
     inkscape:window-maximized="1" />
  <metadata
     id="metadata4723">
    <rdf:RDF>
      <cc:Work
         rdf:about="">
        <dc:format>image/svg+xml</dc:format>
        <dc:type
           rdf:resource="http://purl.org/dc/dcmitype/StillImage" />
        <dc:title></dc:title>
      </cc:Work>
    </rdf:RDF>
  </metadata>
  <g
     inkscape:label="Layer 1"
     inkscape:groupmode="layer"
     id="layer1">
    <rect
       style="color:#000000;clip-rule:nonzero;display:inline;overflow:visible;visibility:visible;opacity:0.98999999;isolation:auto;mix-blend-mode:normal;color-interpolation:sRGB;color-interpolation-filters:linearRGB;solid-color:#000000;solid-opacity:1;fill:#000000;fill-opacity:1;fill-rule:evenodd;stroke:none;stroke-width:1;stroke-linecap:square;stroke-linejoin:miter;stroke-miterlimit:4;stroke-dasharray:1, 2;stroke-dashoffset:0;stroke-opacity:1;color-rendering:auto;image-rendering:auto;shape-rendering:auto;text-rendering:auto;enable-background:accumulate"
       id="rect5298"
       width="647.0354"
       height="799.4978"
       x="28.509224"
       y="106.59971" />
    <path
       style="color:#000000;clip-rule:nonzero;display:inline;overflow:visible;visibility:visible;opacity:0.98999999;isolation:auto;mix-blend-mode:normal;color-interpolation:sRGB;color-interpolation-filters:linearRGB;solid-color:#000000;solid-opacity:1;fill:#ffffff;fill-opacity:1;fill-rule:evenodd;stroke:none;stroke-width:1;stroke-linecap:square;stroke-linejoin:miter;stroke-miterlimit:4;stroke-dasharray:1, 2;stroke-dashoffset:0;stroke-opacity:1;color-rendering:auto;image-rendering:auto;shape-rendering:auto;text-rendering:auto;enable-background:accumulate"
       d="m 130.31718,471.61798 -1.63965,0.75069 c -1.91831,0.87812 -3.65871,2.51813 -4.65945,4.39073 l -0.71257,1.33312 0,74.78777 0,74.78777 0.91907,1.56301 c 1.38063,2.34871 3.26825,3.9171 5.54892,4.61075 0.43508,0.13233 18.72101,0.25319 40.63563,0.26811 l 39.84476,0.0271 0,-31.55602 0,-31.55602 -10.49377,0 -10.49377,0 0.0647,-12.00362 0.0647,-12.00423 10.35014,-0.0666 10.35015,-0.0659 0.18246,-11.51796 c 0.21946,-13.85234 0.57343,-16.48303 2.97356,-22.08983 1.80183,-4.20912 4.97037,-8.27474 8.52126,-10.93428 3.52525,-2.64033 9.18347,-4.82091 14.29209,-5.50812 2.71421,-0.36512 15.40658,-0.22339 21.44985,0.23974 l 2.60372,0.19969 0,10.81595 0,10.81534 -8.79063,0.10539 -8.79063,0.10478 -2.16237,1.10446 c -2.73328,1.39605 -3.97148,2.95175 -4.6841,5.88716 -0.44011,1.8129 -0.5095,3.65396 -0.43519,11.46865 l 0.0881,9.30903 11.83508,0.0733 c 6.5093,0.0404 11.92067,0.0759 12.02494,0.0789 0.10426,0.003 0.0698,0.75106 -0.0764,1.66224 -0.14627,0.91118 -0.68946,5.06474 -1.20694,9.23013 -0.51746,4.1654 -1.11236,8.81597 -1.32219,10.33461 l -0.38156,2.76115 -10.51535,0 -10.51534,0 0,31.56403 0,31.56403 22.17105,-0.0869 c 22.05473,-0.0866 22.17767,-0.0907 23.43346,-0.77041 1.60653,-0.86953 3.35412,-2.70492 4.30624,-4.52324 l 0.74339,-1.42002 0,-74.47221 0,-74.47222 -0.84078,-1.5932 c -0.99707,-1.88875 -2.47108,-3.41225 -4.20885,-4.35128 l -1.26241,-0.68228 -74.606,-0.0814 -74.60538,-0.082 z"
       id="rect5290"
       inkscape:connector-curvature="0"
       inkscape:export-xdpi="90"
       inkscape:export-ydpi="90" />
    <path
       style="fill:#ffffff"
       d="m 158.81267,422.02385 c -11.72134,-4.08624 -21.02556,-13.01318 -25.12069,-24.10206 -2.28804,-6.19563 -2.31246,-6.55147 -2.61131,-38.06366 l -0.30167,-31.80958 22.93667,-0.24303 c 21.63288,-0.22922 22.89842,-0.15173 22.26397,1.36327 -1.37635,3.28653 -2.27932,10.82434 -1.77108,14.78455 1.38486,10.79087 6.53829,20.25177 14.25094,26.16256 8.89877,6.8198 15.21315,8.78721 26.32177,8.20123 6.20291,-0.3272 8.6754,-0.92906 13.351,-3.24991 6.35156,-3.15273 12.96154,-8.97025 16.35379,-14.39312 5.76662,-9.21857 7.44402,-22.87428 3.86801,-31.48949 -0.61846,-1.48996 0.7652,-1.59048 21.89365,-1.59048 12.40461,0 22.7234,0.16967 22.93063,0.37703 0.20724,0.20736 0.17332,15.23738 -0.0753,33.40005 l -0.45216,33.02302 -2.89526,6.16344 c -3.82464,8.14188 -11.34956,15.70444 -19.71254,19.81112 l -6.33018,3.10848 -49.73716,0.21906 c -48.34049,0.21291 -49.88951,0.16595 -55.16303,-1.67248 z m 46.20196,-60.41462 c -8.82881,-3.25102 -14.135,-10.22682 -14.79129,-19.4454 -0.95621,-13.43123 8.52959,-23.65815 21.94373,-23.65815 13.41414,0 22.89995,10.22692 21.94374,23.65815 -1.04351,14.65747 -15.62829,24.40469 -29.09618,19.4454 z m -73.99831,-49.23825 c -0.17687,-0.3749 -0.0991,-5.39439 0.1727,-11.15442 0.44508,-9.43013 0.78553,-11.06715 3.41966,-16.44288 2.83902,-5.79388 9.51297,-14.43678 11.14792,-14.43678 0.44388,0 0.91797,7.46389 1.05353,16.58642 l 0.24648,16.58642 4.06941,0 4.0694,0 0.24348,-19.68457 0.24349,-19.68457 2.83047,-0.99165 c 5.51424,-1.93191 5.27352,-2.81927 5.27352,19.44004 l 0,20.4317 2.03471,0.42365 c 1.11908,0.23302 3.25552,0.34305 4.74763,0.24454 l 2.71294,-0.17914 0.24275,-21.13064 0.24274,-21.13065 42.25991,0.0223 c 25.17662,0.0133 43.86304,0.39366 46.22563,0.94106 6.74724,1.56331 13.89797,5.61546 19.20746,10.88441 8.62262,8.55679 11.61814,16.44681 11.63306,30.64081 l 0.01,9.31566 -27.12153,0 -27.12153,0 -4.04614,-3.10397 c -13.28155,-10.18885 -33.82326,-9.84277 -46.38653,0.78152 l -2.74632,2.32245 -27.17152,0 c -14.94434,0 -27.31624,-0.30674 -27.4931,-0.68164 z m 138.88932,-9.19974 c 1.21115,-1.01127 1.49386,-3.01121 1.49386,-10.56764 0,-11.6318 -0.0697,-11.70623 -11.35635,-12.12703 -7.52217,-0.28046 -8.56137,-0.1194 -10.26272,1.59047 -1.65075,1.65904 -1.89127,2.97852 -1.87919,10.30935 0.0146,8.85956 0.25449,9.73176 3.15125,11.45707 2.49776,1.48768 16.88352,0.98238 18.85315,-0.66222 z"
       id="path5294"
       inkscape:connector-curvature="0"
       inkscape:export-xdpi="90"
       inkscape:export-ydpi="90" />
  </g>
</svg>
